<svg width="31" height="31" viewBox="0 0 31 31" fill="none" xmlns="http://www.w3.org/2000/svg">
<path d="M24.536 24.536C25.3494 24.536 26.1295 24.8591 26.7047 25.4343C27.2799 26.0095 27.603 26.7896 27.603 27.603C27.603 28.4164 27.2799 29.1965 26.7047 29.7717C26.1295 30.3469 25.3494 30.67 24.536 30.67C23.7226 30.67 22.9425 30.3469 22.3673 29.7717C21.7921 29.1965 21.469 28.4164 21.469 27.603C21.469 25.9008 22.8338 24.536 24.536 24.536ZM0 0H5.01455L6.45604 3.067H29.1365C29.5432 3.067 29.9333 3.22857 30.2209 3.51615C30.5084 3.80374 30.67 4.19379 30.67 4.6005C30.67 4.8612 30.5933 5.12189 30.486 5.36725L24.9961 15.289C24.4747 16.2244 23.4626 16.8685 22.3124 16.8685H10.8879L9.5077 19.3681L9.4617 19.5521C9.4617 19.6538 9.50209 19.7513 9.57398 19.8232C9.64588 19.8951 9.74339 19.9355 9.84507 19.9355H27.603V23.0025H9.201C8.38758 23.0025 7.60748 22.6794 7.0323 22.1042C6.45713 21.529 6.134 20.7489 6.134 19.9355C6.134 19.3988 6.27202 18.8927 6.50204 18.4633L8.5876 14.7063L3.067 3.067H0V0ZM9.201 24.536C10.0144 24.536 10.7945 24.8591 11.3697 25.4343C11.9449 26.0095 12.268 26.7896 12.268 27.603C12.268 28.4164 11.9449 29.1965 11.3697 29.7717C10.7945 30.3469 10.0144 30.67 9.201 30.67C8.38758 30.67 7.60748 30.3469 7.0323 29.7717C6.45713 29.1965 6.134 28.4164 6.134 27.603C6.134 25.9008 7.49882 24.536 9.201 24.536ZM23.0025 13.8015L27.2656 6.134H7.88219L11.5013 13.8015H23.0025Z" fill="black"/>
</svg>
