<svg width="188" height="40" viewBox="0 0 188 40" fill="none" xmlns="http://www.w3.org/2000/svg">
<path d="M60.775 8.925V7.575H68.675V8.925L66.825 9.125C66.8083 10.1417 66.7917 11.1667 66.775 12.2C66.775 13.2333 66.775 14.275 66.775 15.325V16.25C66.775 17.2667 66.775 18.3 66.775 19.35C66.7917 20.3833 66.8083 21.4167 66.825 22.45L68.675 22.65V24H60.775V22.65L62.625 22.45C62.6583 21.4333 62.675 20.4 62.675 19.35C62.675 18.3 62.675 17.2167 62.675 16.1L62.75 12.825L56.675 21.275L56.65 22.45L58.7 22.65V24H50.825V22.65L52.65 22.45C52.6833 21.4333 52.7 20.4083 52.7 19.375C52.7 18.3417 52.7 17.3 52.7 16.25V15.325C52.7 14.2917 52.7 13.2583 52.7 12.225C52.7 11.1917 52.6833 10.1583 52.65 9.125L50.825 8.925V7.575H58.7V8.925L56.85 9.125C56.8333 10.1417 56.8167 11.1667 56.8 12.2C56.8 13.2333 56.8 14.275 56.8 15.325L56.725 18.775L62.8 10.275L62.85 9.15L60.775 8.925ZM78.1824 13.075V11.925H84.8824V13.075L83.5574 13.35C83.5408 13.9667 83.5324 14.625 83.5324 15.325C83.5324 16.025 83.5324 16.6417 83.5324 17.175V18.75C83.5324 19.2833 83.5324 19.9 83.5324 20.6C83.5324 21.2833 83.5408 21.9333 83.5574 22.55L84.8824 22.825V24H78.1824V22.825L79.5074 22.55C79.5074 21.95 79.5074 21.275 79.5074 20.525C79.5241 19.775 79.5324 19.0167 79.5324 18.25H75.5574C75.5574 19.0167 75.5574 19.775 75.5574 20.525C75.5741 21.275 75.5824 21.95 75.5824 22.55L76.9074 22.825V24H70.2074V22.825L71.5324 22.55C71.5491 21.9333 71.5574 21.2833 71.5574 20.6C71.5574 19.9 71.5574 19.2833 71.5574 18.75V17.175C71.5574 16.6417 71.5574 16.025 71.5574 15.325C71.5574 14.625 71.5491 13.9667 71.5324 13.35L70.2074 13.075V11.925H76.9074V13.075L75.5824 13.35C75.5824 13.9167 75.5741 14.525 75.5574 15.175C75.5574 15.8083 75.5574 16.3917 75.5574 16.925H79.5324C79.5324 16.3917 79.5241 15.8083 79.5074 15.175C79.5074 14.525 79.5074 13.9167 79.5074 13.35L78.1824 13.075ZM84.9971 12.225L85.0971 7.575H99.7721L99.8471 12.225H97.7721L97.3221 8.975H94.5721C94.5554 10.0083 94.5387 11.0583 94.5221 12.125C94.5221 13.175 94.5221 14.2417 94.5221 15.325V16.225C94.5221 17.2583 94.5221 18.2917 94.5221 19.325C94.5387 20.3583 94.5554 21.3917 94.5721 22.425L96.7221 22.65V24H88.1471V22.65L90.2721 22.425C90.3054 21.4083 90.3221 20.3833 90.3221 19.35C90.3221 18.3167 90.3221 17.2833 90.3221 16.25V15.325C90.3221 14.275 90.3221 13.225 90.3221 12.175C90.3221 11.1083 90.3054 10.0417 90.2721 8.975H87.5471L87.0721 12.225H84.9971ZM105.313 12.825C104.846 12.825 104.413 13.1167 104.013 13.7C103.63 14.2667 103.413 15.3167 103.363 16.85H105.488C106.088 16.85 106.488 16.7333 106.688 16.5C106.905 16.25 107.013 15.8417 107.013 15.275C107.013 14.4417 106.846 13.825 106.513 13.425C106.18 13.025 105.78 12.825 105.313 12.825ZM105.363 24.375C104.146 24.375 103.071 24.125 102.138 23.625C101.205 23.1083 100.471 22.375 99.9381 21.425C99.4048 20.4583 99.1381 19.3083 99.1381 17.975C99.1381 16.575 99.4464 15.4 100.063 14.45C100.696 13.4833 101.505 12.7583 102.488 12.275C103.471 11.775 104.496 11.525 105.563 11.525C106.663 11.525 107.596 11.7583 108.363 12.225C109.146 12.6917 109.738 13.325 110.138 14.125C110.538 14.9083 110.738 15.8083 110.738 16.825C110.738 17.3083 110.688 17.75 110.588 18.15H103.363C103.446 19.4667 103.805 20.4417 104.438 21.075C105.088 21.6917 105.846 22 106.713 22C107.396 22 107.98 21.875 108.463 21.625C108.946 21.3583 109.371 21.0333 109.738 20.65L110.613 21.45C110.096 22.4333 109.396 23.1667 108.513 23.65C107.63 24.1333 106.58 24.375 105.363 24.375ZM119.687 13.025V11.925H124.062V13.025L122.637 13.3L119.737 17.225L123.087 22.575L124.512 22.825V24H117.362V22.825L118.512 22.65L116.662 19.65L114.712 22.6L115.937 22.825V24H111.212V22.825L112.937 22.55L115.937 18.475L112.687 13.225L111.287 13.025V11.925H118.312V13.025L117.212 13.2L119.037 16.1L120.887 13.3L119.687 13.025ZM124.881 21.925C125.048 21.5417 125.306 21.225 125.656 20.975C126.006 20.7083 126.464 20.575 127.031 20.575C127.364 20.575 127.664 20.625 127.931 20.725C128.198 20.825 128.464 20.9667 128.731 21.15C129.114 20.5 129.423 19.7167 129.656 18.8C130.089 17.2667 130.414 15.7583 130.631 14.275C130.848 12.775 131.006 11.0917 131.106 9.225L128.856 8.925V7.575H141.631V8.925L139.806 9.125C139.789 10.1417 139.773 11.175 139.756 12.225C139.756 13.2583 139.756 14.2917 139.756 15.325V16.25C139.756 17.2833 139.756 18.3167 139.756 19.35C139.773 20.3833 139.789 21.4167 139.806 22.45L141.631 22.65V24H133.631V22.65L135.506 22.45C135.539 21.4167 135.556 20.3833 135.556 19.35C135.556 18.3167 135.556 17.275 135.556 16.225V15.325C135.556 14.275 135.556 13.225 135.556 12.175C135.556 11.125 135.539 10.0833 135.506 9.05H132.606C132.489 11.0167 132.339 12.8083 132.156 14.425C131.973 16.0417 131.681 17.6333 131.281 19.2C130.814 21 130.256 22.3167 129.606 23.15C128.973 23.9833 128.189 24.4 127.256 24.4C126.539 24.4 125.964 24.2083 125.531 23.825C125.098 23.425 124.881 22.7917 124.881 21.925ZM152.343 24.35C150.893 24.35 149.976 23.75 149.593 22.55C149.059 23.1167 148.543 23.5667 148.043 23.9C147.559 24.2167 146.884 24.375 146.018 24.375C145.051 24.375 144.259 24.1 143.643 23.55C143.043 23 142.743 22.2083 142.743 21.175C142.743 20.575 142.876 20.0333 143.143 19.55C143.409 19.0667 143.893 18.6167 144.593 18.2C145.293 17.7833 146.284 17.3917 147.568 17.025C147.818 16.9417 148.109 16.8583 148.443 16.775C148.776 16.6917 149.118 16.6083 149.468 16.525V15.7C149.468 14.5833 149.326 13.825 149.043 13.425C148.776 13.025 148.243 12.825 147.443 12.825C147.326 12.825 147.218 12.825 147.118 12.825C147.018 12.825 146.901 12.8333 146.768 12.85L146.643 13.95C146.626 14.7667 146.434 15.3583 146.068 15.725C145.718 16.0917 145.301 16.275 144.818 16.275C143.901 16.275 143.343 15.8583 143.143 15.025C143.209 13.9917 143.734 13.15 144.718 12.5C145.701 11.85 147.093 11.525 148.893 11.525C150.493 11.525 151.634 11.8917 152.318 12.625C153.018 13.3583 153.368 14.5667 153.368 16.25V21.85C153.368 22.3333 153.551 22.575 153.918 22.575C154.051 22.575 154.176 22.5417 154.293 22.475C154.409 22.3917 154.534 22.2417 154.668 22.025L155.343 22.475C155.043 23.1417 154.651 23.625 154.168 23.925C153.701 24.2083 153.093 24.35 152.343 24.35ZM146.443 20.525C146.443 21.1417 146.584 21.6 146.868 21.9C147.168 22.2 147.526 22.35 147.943 22.35C148.126 22.35 148.318 22.3083 148.518 22.225C148.718 22.1417 149.034 21.95 149.468 21.65V17.6C149.251 17.6667 149.034 17.7417 148.818 17.825C148.618 17.8917 148.443 17.9583 148.293 18.025C147.726 18.2583 147.276 18.5917 146.943 19.025C146.609 19.4417 146.443 19.9417 146.443 20.525ZM164.302 13.075V11.925H170.777V13.075L169.452 13.35C169.435 13.9667 169.427 14.625 169.427 15.325C169.427 16.025 169.427 16.6417 169.427 17.175V18.75C169.427 19.2833 169.427 19.9 169.427 20.6C169.427 21.2833 169.435 21.9333 169.452 22.55L170.777 22.825V24H164.302V22.825L165.827 22.45V16L161.027 21.575V22.475L162.552 22.825V24H155.852V22.825L157.177 22.55C157.194 21.9333 157.202 21.2833 157.202 20.6C157.202 19.9 157.202 19.2833 157.202 18.75V17.175C157.202 16.6417 157.202 16.025 157.202 15.325C157.202 14.625 157.194 13.9667 157.177 13.35L155.852 13.075V11.925H162.552V13.075L161.027 13.425V19.65L165.827 14.1V13.45L164.302 13.075ZM163.452 10.275C161.802 10.275 160.594 9.95 159.827 9.3C159.077 8.63333 158.71 7.79167 158.727 6.775C159.01 5.875 159.594 5.425 160.477 5.425C160.96 5.425 161.344 5.56667 161.627 5.85C161.927 6.11667 162.077 6.49167 162.077 6.975C162.077 7.325 161.985 7.64167 161.802 7.925C161.635 8.20833 161.402 8.45833 161.102 8.675C161.735 8.94167 162.519 9.075 163.452 9.075C164.385 9.075 165.169 8.94167 165.802 8.675C165.502 8.45833 165.26 8.20833 165.077 7.925C164.91 7.64167 164.827 7.325 164.827 6.975C164.827 6.49167 164.977 6.11667 165.277 5.85C165.577 5.56667 165.96 5.425 166.427 5.425C167.327 5.425 167.91 5.875 168.177 6.775C168.194 7.79167 167.819 8.63333 167.052 9.3C166.302 9.95 165.102 10.275 163.452 10.275ZM171.864 16.45L171.964 11.925H184.589L184.664 16.45H183.114L182.489 13.225H180.289C180.272 13.8417 180.264 14.5167 180.264 15.25C180.264 15.9833 180.264 16.625 180.264 17.175V18.75C180.264 19.2667 180.264 19.875 180.264 20.575C180.264 21.2583 180.272 21.9083 180.289 22.525L181.789 22.825V24H174.739V22.825L176.239 22.525C176.256 21.9083 176.264 21.2583 176.264 20.575C176.264 19.875 176.264 19.2667 176.264 18.75V17.175C176.264 16.625 176.264 15.9833 176.264 15.25C176.264 14.5167 176.256 13.8417 176.239 13.225H174.039L173.414 16.45H171.864Z" fill="#42546E"/>
<path d="M49.429 34V33.483L50.342 33.384C50.3567 32.9293 50.364 32.4673 50.364 31.998C50.364 31.5287 50.364 31.0593 50.364 30.59V30.117C50.364 29.655 50.364 29.193 50.364 28.731C50.364 28.2617 50.3567 27.7923 50.342 27.323L49.429 27.224V26.707H56.986V27.224L56.073 27.323C56.0657 27.7777 56.0583 28.2397 56.051 28.709C56.051 29.171 56.051 29.6403 56.051 30.117V30.59C56.051 31.052 56.051 31.5177 56.051 31.987C56.0583 32.449 56.0657 32.9147 56.073 33.384L56.986 33.483V34H53.708V33.483L54.599 33.384C54.6137 32.9293 54.621 32.4673 54.621 31.998C54.621 31.5287 54.621 31.0593 54.621 30.59V30.117C54.621 29.6403 54.621 29.1673 54.621 28.698C54.621 28.2213 54.6137 27.7483 54.599 27.279H51.805C51.7977 27.7483 51.7903 28.2213 51.783 28.698C51.783 29.1673 51.783 29.6403 51.783 30.117V30.59C51.783 31.052 51.783 31.5177 51.783 31.987C51.7903 32.449 51.7977 32.9147 51.805 33.384L52.707 33.483V34H49.429ZM61.9606 34.154C61.4619 34.154 61.0109 34.044 60.6076 33.824C60.2116 33.604 59.8962 33.285 59.6616 32.867C59.4269 32.449 59.3096 31.9503 59.3096 31.371C59.3096 30.7843 59.4306 30.282 59.6726 29.864C59.9219 29.446 60.2482 29.127 60.6516 28.907C61.0549 28.687 61.4912 28.577 61.9606 28.577C62.4299 28.577 62.8662 28.687 63.2696 28.907C63.6729 29.127 63.9992 29.446 64.2486 29.864C64.4979 30.2747 64.6226 30.777 64.6226 31.371C64.6226 31.9577 64.5016 32.46 64.2596 32.878C64.0249 33.2887 63.7059 33.604 63.3026 33.824C62.9066 34.044 62.4592 34.154 61.9606 34.154ZM61.9606 33.615C62.3566 33.615 62.6572 33.4317 62.8626 33.065C63.0752 32.6983 63.1816 32.1373 63.1816 31.382C63.1816 29.8713 62.7746 29.116 61.9606 29.116C61.1539 29.116 60.7506 29.8713 60.7506 31.382C60.7506 32.1373 60.8532 32.6983 61.0586 33.065C61.2639 33.4317 61.5646 33.615 61.9606 33.615ZM70.4978 31.041C70.4978 30.7843 70.4941 30.491 70.4868 30.161C70.4868 29.831 70.4831 29.5303 70.4758 29.259H69.4858C69.4051 30.0803 69.2474 30.843 69.0128 31.547C68.7781 32.251 68.4994 32.8927 68.1768 33.472H70.4758C70.4831 33.1933 70.4868 32.889 70.4868 32.559C70.4941 32.229 70.4978 31.9393 70.4978 31.69V31.041ZM67.9568 29.182V28.731H72.6428V29.182L71.8288 29.347C71.8214 29.6183 71.8178 29.9117 71.8178 30.227C71.8178 30.535 71.8178 30.8063 71.8178 31.041V31.69C71.8178 31.9393 71.8178 32.229 71.8178 32.559C71.8251 32.889 71.8324 33.1933 71.8398 33.472H72.7638L72.7088 35.694H72.0708L71.7738 34H67.7038L67.4068 35.694H66.7798L66.7248 33.472H67.2968C67.6781 32.9367 68.0044 32.339 68.2758 31.679C68.5544 31.0117 68.7451 30.2453 68.8478 29.38L67.9568 29.182ZM81.3303 29.182V28.731H83.9043V29.182L83.2223 29.314C83.215 29.5853 83.2113 29.8823 83.2113 30.205C83.2113 30.5203 83.2113 30.799 83.2113 31.041V31.69C83.2113 31.932 83.2113 32.2107 83.2113 32.526C83.2113 32.8413 83.215 33.1383 83.2223 33.417L83.9043 33.549V34H75.2583V33.549L75.9403 33.417C75.9476 33.1383 75.9513 32.8413 75.9513 32.526C75.9513 32.2107 75.9513 31.932 75.9513 31.69V31.041C75.9513 30.799 75.9513 30.5203 75.9513 30.205C75.9513 29.8823 75.9476 29.5853 75.9403 29.314L75.2583 29.182V28.731H77.8433V29.182L77.2273 29.314C77.22 29.5853 77.2163 29.8823 77.2163 30.205C77.2163 30.5203 77.2163 30.799 77.2163 31.041V31.69C77.2163 31.9393 77.2163 32.229 77.2163 32.559C77.2236 32.889 77.231 33.1933 77.2383 33.472H78.9433C78.9506 33.1933 78.9543 32.889 78.9543 32.559C78.9616 32.229 78.9653 31.9393 78.9653 31.69V31.041C78.9653 30.799 78.9653 30.5203 78.9653 30.205C78.9653 29.8823 78.9616 29.5853 78.9543 29.314L78.3383 29.182V28.731H80.8243V29.182L80.2193 29.314C80.212 29.5853 80.2083 29.8823 80.2083 30.205C80.2083 30.5203 80.2083 30.799 80.2083 31.041V31.69C80.2083 31.9393 80.2083 32.229 80.2083 32.559C80.2156 32.889 80.223 33.1933 80.2303 33.472H81.9243C81.9316 33.1933 81.9353 32.889 81.9353 32.559C81.9426 32.229 81.9463 31.9393 81.9463 31.69V31.041C81.9463 30.799 81.9463 30.5203 81.9463 30.205C81.9463 29.8823 81.9426 29.5853 81.9353 29.314L81.3303 29.182ZM90.1452 29.182V28.731H92.8182V29.182L92.1252 29.325C92.1178 29.5963 92.1142 29.8897 92.1142 30.205C92.1142 30.5203 92.1142 30.799 92.1142 31.041V31.69C92.1142 31.932 92.1142 32.2107 92.1142 32.526C92.1142 32.8413 92.1178 33.1347 92.1252 33.406L92.8182 33.549V34H90.1452V33.549L90.9042 33.384V30.348L88.4512 33.054V33.395L89.1992 33.549V34H86.4822V33.549L87.1642 33.417C87.1715 33.1383 87.1752 32.8413 87.1752 32.526C87.1752 32.2107 87.1752 31.932 87.1752 31.69V31.041C87.1752 30.799 87.1752 30.5203 87.1752 30.205C87.1752 29.8823 87.1715 29.5853 87.1642 29.314L86.4822 29.182V28.731H89.1992V29.182L88.4512 29.336V32.328L90.9042 29.611V29.347L90.1452 29.182ZM95.3965 34V33.549L96.0785 33.417C96.0858 33.1457 96.0895 32.8523 96.0895 32.537C96.0895 32.2143 96.0895 31.932 96.0895 31.69V31.041C96.0895 30.799 96.0895 30.5203 96.0895 30.205C96.0895 29.8823 96.0858 29.5853 96.0785 29.314L95.3965 29.182V28.731H101.512V29.182L100.83 29.325C100.823 29.5963 100.819 29.8897 100.819 30.205C100.819 30.5203 100.819 30.799 100.819 31.041V31.69C100.819 31.932 100.819 32.2107 100.819 32.526C100.819 32.8413 100.823 33.1347 100.83 33.406L101.512 33.549V34H98.7955V33.549L99.4885 33.417C99.4958 33.1383 99.4995 32.8413 99.4995 32.526C99.4995 32.2107 99.4995 31.932 99.4995 31.69V31.041C99.4995 30.7843 99.4958 30.491 99.4885 30.161C99.4885 29.831 99.4848 29.5303 99.4775 29.259H97.4425C97.4351 29.5303 97.4278 29.831 97.4205 30.161C97.4205 30.491 97.4205 30.7843 97.4205 31.041V31.69C97.4205 31.932 97.4205 32.2107 97.4205 32.526C97.4205 32.8413 97.4241 33.1347 97.4315 33.406L98.1135 33.549V34H95.3965ZM107.572 29.182V28.731H110.3V29.182L109.607 29.325C109.6 29.5963 109.596 29.8897 109.596 30.205C109.596 30.5203 109.596 30.799 109.596 31.041V31.69C109.596 31.932 109.596 32.2107 109.596 32.526C109.596 32.8413 109.6 33.1347 109.607 33.406L110.3 33.549V34H107.572V33.549L108.265 33.417C108.265 33.1457 108.265 32.8413 108.265 32.504C108.272 32.1667 108.276 31.8293 108.276 31.492H106.109C106.109 31.8293 106.109 32.1667 106.109 32.504C106.116 32.8413 106.12 33.142 106.12 33.406L106.802 33.549V34H104.085V33.549L104.767 33.417C104.774 33.1457 104.778 32.8523 104.778 32.537C104.778 32.2143 104.778 31.932 104.778 31.69V31.041C104.778 30.799 104.778 30.5203 104.778 30.205C104.778 29.8823 104.774 29.5853 104.767 29.314L104.085 29.182V28.731H106.802V29.182L106.12 29.325C106.12 29.5743 106.116 29.8493 106.109 30.15C106.109 30.4507 106.109 30.722 106.109 30.964H108.276C108.276 30.722 108.272 30.4507 108.265 30.15C108.265 29.8493 108.265 29.5707 108.265 29.314L107.572 29.182ZM116.534 29.182V28.731H119.207V29.182L118.514 29.325C118.506 29.5963 118.503 29.8897 118.503 30.205C118.503 30.5203 118.503 30.799 118.503 31.041V31.69C118.503 31.932 118.503 32.2107 118.503 32.526C118.503 32.8413 118.506 33.1347 118.514 33.406L119.207 33.549V34H116.534V33.549L117.293 33.384V30.348L114.84 33.054V33.395L115.588 33.549V34H112.871V33.549L113.553 33.417C113.56 33.1383 113.564 32.8413 113.564 32.526C113.564 32.2107 113.564 31.932 113.564 31.69V31.041C113.564 30.799 113.564 30.5203 113.564 30.205C113.564 29.8823 113.56 29.5853 113.553 29.314L112.871 29.182V28.731H115.588V29.182L114.84 29.336V32.328L117.293 29.611V29.347L116.534 29.182ZM125.536 33.318L125.228 32.24C125.162 32.0053 125.056 31.8403 124.909 31.745C124.77 31.6423 124.564 31.591 124.293 31.591H123.809C123.809 31.8843 123.809 32.196 123.809 32.526C123.816 32.8487 123.82 33.142 123.82 33.406L124.502 33.549V34H121.785V33.549L122.467 33.417C122.474 33.1457 122.478 32.8523 122.478 32.537C122.478 32.2143 122.478 31.932 122.478 31.69V31.041C122.478 30.799 122.478 30.5203 122.478 30.205C122.478 29.8823 122.474 29.5853 122.467 29.314L121.785 29.182V28.731H124.502V29.182L123.82 29.325C123.813 29.5963 123.809 29.8933 123.809 30.216C123.809 30.5387 123.809 30.8247 123.809 31.074H124.293C124.535 31.074 124.74 31.0117 124.909 30.887C125.078 30.755 125.232 30.4873 125.371 30.084C125.54 29.578 125.727 29.215 125.932 28.995C126.137 28.7677 126.416 28.6283 126.768 28.577C126.981 28.6283 127.135 28.7127 127.23 28.83C127.333 28.9473 127.384 29.0903 127.384 29.259C127.384 29.4643 127.314 29.6257 127.175 29.743C127.036 29.8603 126.845 29.919 126.603 29.919C126.398 29.919 126.207 29.897 126.031 29.853C126.002 29.919 125.972 29.9887 125.943 30.062C125.914 30.1353 125.884 30.2123 125.855 30.293C125.76 30.5643 125.646 30.7807 125.514 30.942C125.382 31.096 125.221 31.217 125.03 31.305C125.47 31.3857 125.807 31.5287 126.042 31.734C126.277 31.932 126.445 32.2143 126.548 32.581L126.801 33.428L127.516 33.549V34C127.399 34.0293 127.267 34.055 127.12 34.077C126.981 34.1063 126.838 34.121 126.691 34.121C126.376 34.121 126.123 34.066 125.932 33.956C125.749 33.846 125.617 33.6333 125.536 33.318ZM133.471 29.182V28.731H136.144V29.182L135.451 29.325C135.443 29.5963 135.44 29.8897 135.44 30.205C135.44 30.5203 135.44 30.799 135.44 31.041V31.69C135.44 31.932 135.44 32.2107 135.44 32.526C135.44 32.8413 135.443 33.1347 135.451 33.406L136.144 33.549V34H133.471V33.549L134.23 33.384V30.348L131.777 33.054V33.395L132.525 33.549V34H129.808V33.549L130.49 33.417C130.497 33.1383 130.501 32.8413 130.501 32.526C130.501 32.2107 130.501 31.932 130.501 31.69V31.041C130.501 30.799 130.501 30.5203 130.501 30.205C130.501 29.8823 130.497 29.5853 130.49 29.314L129.808 29.182V28.731H132.525V29.182L131.777 29.336V32.328L134.23 29.611V29.347L133.471 29.182ZM145.824 27.268H145.351C145.343 27.7373 145.336 28.2103 145.329 28.687C145.329 29.1637 145.329 29.6403 145.329 30.117V30.601H145.868C146.447 30.601 146.869 30.4433 147.133 30.128C147.397 29.8127 147.529 29.3983 147.529 28.885C147.529 28.3643 147.386 27.9647 147.1 27.686C146.821 27.4073 146.396 27.268 145.824 27.268ZM142.964 27.224V26.707H145.934C146.968 26.707 147.723 26.9087 148.2 27.312C148.684 27.708 148.926 28.2323 148.926 28.885C148.926 29.2957 148.823 29.677 148.618 30.029C148.42 30.3737 148.09 30.6487 147.628 30.854C147.173 31.0593 146.557 31.162 145.78 31.162H145.329C145.329 31.514 145.329 31.8733 145.329 32.24C145.336 32.6067 145.343 32.9843 145.351 33.373L146.352 33.483V34H142.964V33.483L143.888 33.384C143.902 32.9293 143.91 32.4673 143.91 31.998C143.91 31.5287 143.91 31.0593 143.91 30.59V30.117C143.91 29.655 143.91 29.193 143.91 28.731C143.91 28.2617 143.902 27.7923 143.888 27.323L142.964 27.224ZM153.734 34.154C153.235 34.154 152.784 34.044 152.381 33.824C151.985 33.604 151.669 33.285 151.435 32.867C151.2 32.449 151.083 31.9503 151.083 31.371C151.083 30.7843 151.204 30.282 151.446 29.864C151.695 29.446 152.021 29.127 152.425 28.907C152.828 28.687 153.264 28.577 153.734 28.577C154.203 28.577 154.639 28.687 155.043 28.907C155.446 29.127 155.772 29.446 156.022 29.864C156.271 30.2747 156.396 30.777 156.396 31.371C156.396 31.9577 156.275 32.46 156.033 32.878C155.798 33.2887 155.479 33.604 155.076 33.824C154.68 34.044 154.232 34.154 153.734 34.154ZM153.734 33.615C154.13 33.615 154.43 33.4317 154.636 33.065C154.848 32.6983 154.955 32.1373 154.955 31.382C154.955 29.8713 154.548 29.116 153.734 29.116C152.927 29.116 152.524 29.8713 152.524 31.382C152.524 32.1373 152.626 32.6983 152.832 33.065C153.037 33.4317 153.338 33.615 153.734 33.615ZM161.594 34.154C161.095 34.154 160.648 34.0477 160.252 33.835C159.856 33.615 159.544 33.2997 159.317 32.889C159.097 32.471 158.987 31.9687 158.987 31.382C158.987 30.788 159.111 30.282 159.361 29.864C159.617 29.446 159.955 29.127 160.373 28.907C160.791 28.687 161.245 28.577 161.737 28.577C162.096 28.577 162.419 28.6467 162.705 28.786C162.998 28.918 163.233 29.0977 163.409 29.325C163.592 29.5523 163.702 29.809 163.739 30.095C163.651 30.4177 163.442 30.579 163.112 30.579C162.701 30.579 162.463 30.3223 162.397 29.809L162.254 29.149C162.188 29.1343 162.122 29.1233 162.056 29.116C161.99 29.1087 161.924 29.105 161.858 29.105C161.594 29.105 161.348 29.182 161.121 29.336C160.901 29.4827 160.721 29.7137 160.582 30.029C160.442 30.3443 160.373 30.744 160.373 31.228C160.373 31.8953 160.523 32.405 160.824 32.757C161.132 33.109 161.531 33.285 162.023 33.285C162.316 33.285 162.58 33.219 162.815 33.087C163.049 32.955 163.247 32.7753 163.409 32.548L163.739 32.79C163.555 33.2373 163.28 33.5783 162.914 33.813C162.554 34.0403 162.114 34.154 161.594 34.154ZM166.05 30.612L166.116 28.731H171.429L171.484 30.612H170.901L170.604 29.259H169.449C169.442 29.5303 169.435 29.831 169.427 30.161C169.427 30.491 169.427 30.7843 169.427 31.041V31.69C169.427 31.932 169.427 32.2107 169.427 32.526C169.427 32.834 169.431 33.1237 169.438 33.395L170.219 33.549V34H167.315V33.549L168.096 33.395C168.104 33.1237 168.107 32.834 168.107 32.526C168.107 32.2107 168.107 31.932 168.107 31.69V31.041C168.107 30.7843 168.104 30.491 168.096 30.161C168.096 29.831 168.093 29.5303 168.085 29.259H166.93L166.644 30.612H166.05ZM176.566 34.154C176.068 34.154 175.617 34.044 175.213 33.824C174.817 33.604 174.502 33.285 174.267 32.867C174.033 32.449 173.915 31.9503 173.915 31.371C173.915 30.7843 174.036 30.282 174.278 29.864C174.528 29.446 174.854 29.127 175.257 28.907C175.661 28.687 176.097 28.577 176.566 28.577C177.036 28.577 177.472 28.687 177.875 28.907C178.279 29.127 178.605 29.446 178.854 29.864C179.104 30.2747 179.228 30.777 179.228 31.371C179.228 31.9577 179.107 32.46 178.865 32.878C178.631 33.2887 178.312 33.604 177.908 33.824C177.512 34.044 177.065 34.154 176.566 34.154ZM176.566 33.615C176.962 33.615 177.263 33.4317 177.468 33.065C177.681 32.6983 177.787 32.1373 177.787 31.382C177.787 29.8713 177.38 29.116 176.566 29.116C175.76 29.116 175.356 29.8713 175.356 31.382C175.356 32.1373 175.459 32.6983 175.664 33.065C175.87 33.4317 176.17 33.615 176.566 33.615ZM181.798 29.182V28.731H184.867C185.491 28.731 185.949 28.852 186.242 29.094C186.536 29.3287 186.682 29.6293 186.682 29.996C186.682 30.2747 186.591 30.5277 186.407 30.755C186.231 30.975 185.916 31.129 185.461 31.217C185.982 31.2903 186.356 31.448 186.583 31.69C186.818 31.9247 186.935 32.2143 186.935 32.559C186.935 32.7937 186.862 33.0247 186.715 33.252C186.576 33.472 186.341 33.6517 186.011 33.791C185.681 33.9303 185.227 34 184.647 34H181.798V33.549L182.48 33.417C182.488 33.1457 182.491 32.8523 182.491 32.537C182.491 32.2143 182.491 31.932 182.491 31.69V31.041C182.491 30.799 182.491 30.5203 182.491 30.205C182.491 29.8823 182.488 29.5853 182.48 29.314L181.798 29.182ZM183.778 31.69C183.778 31.9393 183.778 32.229 183.778 32.559C183.786 32.889 183.793 33.1933 183.8 33.472H184.438C185.23 33.472 185.626 33.1603 185.626 32.537C185.626 32.1923 185.527 31.932 185.329 31.756C185.131 31.5727 184.82 31.481 184.394 31.481H183.778V31.69ZM184.471 29.259H183.8C183.793 29.5083 183.786 29.7907 183.778 30.106C183.778 30.414 183.778 30.7147 183.778 31.008H184.361C184.728 31.008 184.996 30.931 185.164 30.777C185.34 30.6157 185.428 30.3847 185.428 30.084C185.428 29.534 185.109 29.259 184.471 29.259Z" fill="black"/>
<circle cx="20" cy="20" r="18.5" stroke="#42546E" stroke-width="3"/>
<circle cx="20" cy="20" r="8.5" stroke="#42546E" stroke-width="3"/>
<circle cx="20" cy="6" r="4" fill="#42546E"/>
<circle cx="20" cy="33" r="4" fill="#42546E"/>
<circle cx="32" cy="13" r="4" fill="#42546E"/>
<circle cx="32" cy="26" r="4" fill="#42546E"/>
<circle cx="8" cy="26" r="4" fill="#42546E"/>
<circle cx="8" cy="13" r="4" fill="#42546E"/>
</svg>
