<svg width="189" height="40" viewBox="0 0 189 40" fill="none" xmlns="http://www.w3.org/2000/svg">
<path d="M51.5803 6.81818H55.4155V18.2528H55.5664L63.4233 6.81818H66.788V25H62.9439V13.5565H62.8107L54.9094 25H51.5803V6.81818ZM79.3834 16.6726V19.6467H72.2634V16.6726H79.3834ZM73.5063 11.3636V25H69.893V11.3636H73.5063ZM81.7538 11.3636V25H78.1672V11.3636H81.7538ZM82.919 9.98757V6.81818H97.8516V9.98757H92.2852V25H88.4854V9.98757H82.919ZM104.477 25.2663C103.074 25.2663 101.867 24.9822 100.854 24.4141C99.8483 23.84 99.073 23.0291 98.5285 21.9815C97.984 20.928 97.7117 19.6822 97.7117 18.244C97.7117 16.8413 97.984 15.6102 98.5285 14.5508C99.073 13.4914 99.8395 12.6657 100.828 12.0739C101.822 11.482 102.988 11.1861 104.326 11.1861C105.225 11.1861 106.063 11.3311 106.838 11.6211C107.619 11.9052 108.3 12.3343 108.88 12.9084C109.466 13.4825 109.922 14.2045 110.247 15.0746C110.573 15.9387 110.736 16.9508 110.736 18.1108V19.1495H99.221V16.8058H107.176C107.176 16.2612 107.057 15.7789 106.82 15.3587C106.584 14.9384 106.255 14.61 105.835 14.3732C105.421 14.1306 104.938 14.0092 104.388 14.0092C103.814 14.0092 103.305 14.1424 102.861 14.4087C102.423 14.6692 102.08 15.0213 101.831 15.4652C101.582 15.9032 101.455 16.3915 101.449 16.93V19.1584C101.449 19.8331 101.574 20.4161 101.822 20.9073C102.077 21.3986 102.435 21.7773 102.896 22.0437C103.358 22.31 103.906 22.4432 104.539 22.4432C104.959 22.4432 105.344 22.384 105.693 22.2656C106.042 22.1473 106.341 21.9697 106.59 21.733C106.838 21.4962 107.028 21.2062 107.158 20.8629L110.656 21.0938C110.478 21.9342 110.114 22.6681 109.564 23.2955C109.019 23.9169 108.315 24.4022 107.451 24.7514C106.593 25.0947 105.601 25.2663 104.477 25.2663ZM116.12 11.3636L118.623 16.131L121.189 11.3636H125.069L121.118 18.1818L125.175 25H121.313L118.623 20.2859L115.978 25H112.072L116.12 18.1818L112.214 11.3636H116.12ZM126.4 25V21.9105L126.915 21.8661C127.578 21.8129 128.114 21.5613 128.522 21.1115C128.931 20.6558 129.235 19.9308 129.437 18.9364C129.644 17.9362 129.777 16.5927 129.836 14.9059L130.138 6.81818H142.478V25H138.741V9.89879H133.707L133.423 16.2287C133.328 18.2647 133.085 19.9278 132.695 21.218C132.31 22.5083 131.695 23.4612 130.848 24.0767C130.008 24.6922 128.857 25 127.395 25H126.4ZM149.465 25.2575C148.595 25.2575 147.82 25.1065 147.139 24.8047C146.458 24.4969 145.92 24.0442 145.523 23.4464C145.133 22.8427 144.937 22.091 144.937 21.1914C144.937 20.4338 145.076 19.7976 145.355 19.2827C145.633 18.7678 146.012 18.3535 146.491 18.0398C146.97 17.7261 147.515 17.4893 148.125 17.3295C148.74 17.1697 149.385 17.0573 150.06 16.9922C150.853 16.9093 151.492 16.8324 151.978 16.7614C152.463 16.6844 152.815 16.572 153.034 16.424C153.253 16.276 153.362 16.0571 153.362 15.767V15.7138C153.362 15.1515 153.185 14.7165 152.83 14.4087C152.481 14.101 151.983 13.9471 151.338 13.9471C150.658 13.9471 150.116 14.098 149.714 14.3999C149.311 14.6958 149.045 15.0687 148.915 15.5185L145.417 15.2344C145.594 14.4058 145.944 13.6896 146.464 13.0859C146.985 12.4763 147.657 12.0088 148.48 11.6832C149.308 11.3518 150.267 11.1861 151.356 11.1861C152.114 11.1861 152.839 11.2749 153.531 11.4524C154.23 11.63 154.848 11.9052 155.387 12.2781C155.931 12.6509 156.36 13.1303 156.674 13.7163C156.988 14.2963 157.144 14.9917 157.144 15.8026V25H153.558V23.109H153.451C153.232 23.5352 152.939 23.911 152.572 24.2365C152.205 24.5561 151.764 24.8076 151.25 24.9911C150.735 25.1687 150.14 25.2575 149.465 25.2575ZM150.548 22.6474C151.105 22.6474 151.596 22.5379 152.022 22.3189C152.448 22.094 152.782 21.7921 153.025 21.4134C153.268 21.0346 153.389 20.6055 153.389 20.1261V18.679C153.271 18.7559 153.108 18.8269 152.901 18.892C152.7 18.9512 152.472 19.0075 152.217 19.0607C151.963 19.1081 151.708 19.1525 151.454 19.1939C151.199 19.2294 150.968 19.262 150.761 19.2915C150.317 19.3567 149.93 19.4602 149.598 19.6023C149.267 19.7443 149.009 19.9367 148.826 20.1793C148.642 20.4161 148.551 20.712 148.551 21.0671C148.551 21.582 148.737 21.9756 149.11 22.2479C149.489 22.5142 149.968 22.6474 150.548 22.6474ZM163.692 20.0107L168.601 11.3636H172.33V25H168.726V16.3263L163.834 25H160.079V11.3636H163.692V20.0107ZM167.953 6.60511H170.59C170.584 7.68229 170.185 8.54936 169.391 9.20632C168.604 9.86328 167.539 10.1918 166.195 10.1918C164.846 10.1918 163.778 9.86328 162.991 9.20632C162.203 8.54936 161.81 7.68229 161.81 6.60511H164.429C164.423 7.01349 164.553 7.38044 164.819 7.70597C165.092 8.03149 165.55 8.19425 166.195 8.19425C166.823 8.19425 167.273 8.03445 167.545 7.71484C167.817 7.39524 167.953 7.02533 167.953 6.60511ZM173.992 14.3377V11.3636H186.35V14.3377H181.956V25H178.351V14.3377H173.992Z" fill="#42546E"/>
<path d="M56.3164 27V35H54.8789V28.2031H51.3789V35H49.9414V27H56.3164ZM62.3645 35.1172C61.7786 35.1172 61.2707 34.9883 60.8411 34.7305C60.4114 34.4727 60.078 34.112 59.8411 33.6484C59.6067 33.1849 59.4895 32.6432 59.4895 32.0234C59.4895 31.4036 59.6067 30.8607 59.8411 30.3945C60.078 29.9284 60.4114 29.5664 60.8411 29.3086C61.2707 29.0508 61.7786 28.9219 62.3645 28.9219C62.9504 28.9219 63.4582 29.0508 63.8879 29.3086C64.3176 29.5664 64.6496 29.9284 64.884 30.3945C65.121 30.8607 65.2395 31.4036 65.2395 32.0234C65.2395 32.6432 65.121 33.1849 64.884 33.6484C64.6496 34.112 64.3176 34.4727 63.8879 34.7305C63.4582 34.9883 62.9504 35.1172 62.3645 35.1172ZM62.3723 33.9844C62.69 33.9844 62.9556 33.8971 63.1692 33.7227C63.3827 33.5456 63.5416 33.3086 63.6457 33.0117C63.7525 32.7148 63.8059 32.3841 63.8059 32.0195C63.8059 31.6523 63.7525 31.3203 63.6457 31.0234C63.5416 30.724 63.3827 30.4857 63.1692 30.3086C62.9556 30.1315 62.69 30.043 62.3723 30.043C62.0468 30.043 61.776 30.1315 61.5598 30.3086C61.3463 30.4857 61.1861 30.724 61.0793 31.0234C60.9752 31.3203 60.9231 31.6523 60.9231 32.0195C60.9231 32.3841 60.9752 32.7148 61.0793 33.0117C61.1861 33.3086 61.3463 33.5456 61.5598 33.7227C61.776 33.8971 62.0468 33.9844 62.3723 33.9844ZM67.6684 36.7422V33.8359H68.145C68.2726 33.737 68.3794 33.6029 68.4653 33.4336C68.5513 33.2617 68.6216 33.0599 68.6763 32.8281C68.7335 32.5937 68.7804 32.332 68.8169 32.043C68.8533 31.7513 68.8859 31.4375 68.9145 31.1016L69.0864 29H73.4223V33.8359H74.352V36.7422H72.9848V35H69.0591V36.7422H67.6684ZM69.5981 33.8359H72.0708V30.1406H70.313L70.2192 31.1016C70.1671 31.737 70.0981 32.2812 70.0122 32.7344C69.9263 33.1875 69.7882 33.5547 69.5981 33.8359ZM77.1677 29H78.531V33.8359H80.4177V29H81.781V33.8359H83.6677V29H85.031V35H77.1677V29ZM89.583 33.0859L91.9853 29H93.4384V35H92.0713V30.9102L89.6767 35H88.2197V29H89.583V33.0859ZM96.6506 35V29H101.717V35H100.354V30.1602H98.0021V35H96.6506ZM109.052 31.4141V32.5742H105.857V31.4141H109.052ZM106.294 29V35H104.931V29H106.294ZM109.978 29V35H108.619V29H109.978ZM114.532 33.0859L116.934 29H118.387V35H117.02V30.9102L114.626 35H113.169V29H114.532V33.0859ZM121.6 35V29H123.014V31.4219H123.529L125.334 29H127.037L124.814 31.9453L127.06 35H125.35L123.705 32.7383H123.014V35H121.6ZM130.986 33.0859L133.388 29H134.841V35H133.474V30.9102L131.079 35H129.622V29H130.986V33.0859ZM142.604 35V27H145.604C146.219 27 146.734 27.1146 147.151 27.3437C147.57 27.5729 147.887 27.888 148.1 28.2891C148.316 28.6875 148.424 29.1406 148.424 29.6484C148.424 30.1615 148.316 30.6172 148.1 31.0156C147.884 31.4141 147.565 31.7279 147.143 31.957C146.721 32.1836 146.202 32.2969 145.585 32.2969H143.596V31.1055H145.389C145.749 31.1055 146.043 31.043 146.272 30.918C146.501 30.793 146.671 30.6211 146.78 30.4023C146.892 30.1836 146.948 29.9323 146.948 29.6484C146.948 29.3646 146.892 29.1146 146.78 28.8984C146.671 28.6823 146.5 28.5143 146.268 28.3945C146.039 28.2721 145.743 28.2109 145.381 28.2109H144.053V35H142.604ZM153.912 35.1172C153.326 35.1172 152.818 34.9883 152.389 34.7305C151.959 34.4727 151.626 34.112 151.389 33.6484C151.154 33.1849 151.037 32.6432 151.037 32.0234C151.037 31.4036 151.154 30.8607 151.389 30.3945C151.626 29.9284 151.959 29.5664 152.389 29.3086C152.818 29.0508 153.326 28.9219 153.912 28.9219C154.498 28.9219 155.006 29.0508 155.435 29.3086C155.865 29.5664 156.197 29.9284 156.432 30.3945C156.669 30.8607 156.787 31.4036 156.787 32.0234C156.787 32.6432 156.669 33.1849 156.432 33.6484C156.197 34.112 155.865 34.4727 155.435 34.7305C155.006 34.9883 154.498 35.1172 153.912 35.1172ZM153.92 33.9844C154.238 33.9844 154.503 33.8971 154.717 33.7227C154.93 33.5456 155.089 33.3086 155.193 33.0117C155.3 32.7148 155.353 32.3841 155.353 32.0195C155.353 31.6523 155.3 31.3203 155.193 31.0234C155.089 30.724 154.93 30.4857 154.717 30.3086C154.503 30.1315 154.238 30.043 153.92 30.043C153.594 30.043 153.323 30.1315 153.107 30.3086C152.894 30.4857 152.734 30.724 152.627 31.0234C152.523 31.3203 152.471 31.6523 152.471 32.0195C152.471 32.3841 152.523 32.7148 152.627 33.0117C152.734 33.3086 152.894 33.5456 153.107 33.7227C153.323 33.8971 153.594 33.9844 153.92 33.9844ZM162.364 35.1172C161.765 35.1172 161.251 34.9857 160.821 34.7227C160.394 34.4596 160.065 34.0964 159.833 33.6328C159.604 33.1667 159.489 32.6302 159.489 32.0234C159.489 31.4141 159.607 30.8763 159.841 30.4102C160.075 29.9414 160.406 29.5768 160.833 29.3164C161.263 29.0534 161.771 28.9219 162.357 28.9219C162.844 28.9219 163.275 29.0117 163.65 29.1914C164.027 29.3685 164.328 29.6198 164.552 29.9453C164.776 30.2682 164.903 30.6458 164.935 31.0781H163.583C163.528 30.7891 163.398 30.5482 163.192 30.3555C162.989 30.1602 162.717 30.0625 162.376 30.0625C162.087 30.0625 161.833 30.1406 161.614 30.2969C161.396 30.4505 161.225 30.6719 161.103 30.9609C160.983 31.25 160.923 31.5964 160.923 32C160.923 32.4089 160.983 32.7604 161.103 33.0547C161.222 33.3464 161.39 33.5716 161.607 33.7305C161.825 33.8867 162.082 33.9648 162.376 33.9648C162.584 33.9648 162.771 33.9258 162.935 33.8477C163.101 33.7669 163.241 33.651 163.353 33.5C163.465 33.349 163.541 33.1654 163.583 32.9492H164.935C164.901 33.3737 164.776 33.75 164.56 34.0781C164.344 34.4036 164.049 34.6589 163.677 34.8437C163.304 35.026 162.867 35.1172 162.364 35.1172ZM167.42 30.1602V29H172.67V30.1602H170.729V35H169.362V30.1602H167.42ZM177.926 35.1172C177.34 35.1172 176.833 34.9883 176.403 34.7305C175.973 34.4727 175.64 34.112 175.403 33.6484C175.169 33.1849 175.051 32.6432 175.051 32.0234C175.051 31.4036 175.169 30.8607 175.403 30.3945C175.64 29.9284 175.973 29.5664 176.403 29.3086C176.833 29.0508 177.34 28.9219 177.926 28.9219C178.512 28.9219 179.02 29.0508 179.45 29.3086C179.879 29.5664 180.212 29.9284 180.446 30.3945C180.683 30.8607 180.801 31.4036 180.801 32.0234C180.801 32.6432 180.683 33.1849 180.446 33.6484C180.212 34.112 179.879 34.4727 179.45 34.7305C179.02 34.9883 178.512 35.1172 177.926 35.1172ZM177.934 33.9844C178.252 33.9844 178.518 33.8971 178.731 33.7227C178.945 33.5456 179.103 33.3086 179.208 33.0117C179.314 32.7148 179.368 32.3841 179.368 32.0195C179.368 31.6523 179.314 31.3203 179.208 31.0234C179.103 30.724 178.945 30.4857 178.731 30.3086C178.518 30.1315 178.252 30.043 177.934 30.043C177.609 30.043 177.338 30.1315 177.122 30.3086C176.908 30.4857 176.748 30.724 176.641 31.0234C176.537 31.3203 176.485 31.6523 176.485 32.0195C176.485 32.3841 176.537 32.7148 176.641 33.0117C176.748 33.3086 176.908 33.5456 177.122 33.7227C177.338 33.8971 177.609 33.9844 177.934 33.9844ZM183.762 35V29H186.281C186.992 29 187.553 29.1419 187.965 29.4258C188.379 29.7096 188.586 30.1055 188.586 30.6133C188.586 30.9492 188.469 31.224 188.234 31.4375C188.002 31.6484 187.686 31.7904 187.285 31.8633C187.6 31.8893 187.876 31.9687 188.113 32.1016C188.353 32.2344 188.54 32.4089 188.676 32.625C188.811 32.8411 188.879 33.0898 188.879 33.3711C188.879 33.7018 188.792 33.9896 188.617 34.2344C188.445 34.4766 188.194 34.6654 187.863 34.8008C187.535 34.9336 187.137 35 186.668 35H183.762ZM185.086 33.8867H186.668C186.928 33.8867 187.133 33.8255 187.281 33.7031C187.43 33.5781 187.504 33.4089 187.504 33.1953C187.504 32.9479 187.43 32.7539 187.281 32.6133C187.133 32.4701 186.928 32.3984 186.668 32.3984H185.086V33.8867ZM185.086 31.4844H186.308C186.501 31.4844 186.667 31.457 186.805 31.4023C186.943 31.3451 187.048 31.2656 187.121 31.1641C187.194 31.0599 187.23 30.9362 187.23 30.793C187.23 30.5872 187.146 30.4258 186.976 30.3086C186.81 30.1914 186.578 30.1328 186.281 30.1328H185.086V31.4844Z" fill="black"/>
<circle cx="20" cy="20" r="18.5" stroke="#42546E" stroke-width="3"/>
<circle cx="20" cy="20" r="8.5" stroke="#42546E" stroke-width="3"/>
<circle cx="20" cy="6" r="4" fill="#42546E"/>
<circle cx="20" cy="33" r="4" fill="#42546E"/>
<circle cx="32" cy="13" r="4" fill="#42546E"/>
<circle cx="32" cy="26" r="4" fill="#42546E"/>
<circle cx="8" cy="26" r="4" fill="#42546E"/>
<circle cx="8" cy="13" r="4" fill="#42546E"/>
</svg>
